<svg width="164" height="24" viewBox="0 0 164 24" fill="none" xmlns="http://www.w3.org/2000/svg">
<path fill-rule="evenodd" clip-rule="evenodd" d="M3.27667 8.64861C2.84671 8.64861 2.42095 8.73528 2.02371 8.90367C1.62648 9.07206 1.26554 9.31888 0.961509 9.63002C0.657477 9.94117 0.416306 10.3106 0.251765 10.7171C0.0872246 11.1236 0.00253679 11.5593 0.00253679 11.9994C0.00253679 12.4394 0.0872246 12.8751 0.251765 13.2816C0.416306 13.6882 0.657477 14.0575 0.961509 14.3687C1.26554 14.6798 1.62648 14.9266 2.02371 15.095C2.42095 15.2634 2.84671 15.3501 3.27667 15.3501H6.55081V12.0668C6.5503 12.0218 6.5503 11.9769 6.55081 11.9319V8.64861H3.27667ZM6.55081 6.70277H3.27667C2.40815 6.70277 1.5752 6.34968 0.96106 5.72117C0.346922 5.09267 0.00190275 4.24023 0.00190275 3.35139C0.00190275 2.46254 0.346922 1.61011 0.96106 0.981598C1.5752 0.353091 2.40815 0 3.27667 0H6.55081V6.70277ZM8.45216 0V6.70277H11.7263C12.5837 6.68551 13.4002 6.32483 14.0006 5.6982C14.601 5.07158 14.9373 4.22898 14.9373 3.35139C14.9373 2.47379 14.601 1.6312 14.0006 1.00457C13.4002 0.377941 12.5837 0.0172634 11.7263 0H8.45216ZM11.7263 8.64732C10.8669 8.64721 10.0419 8.99292 9.42932 9.60985C8.81677 10.2268 8.4658 11.0654 8.45216 11.9449V12.0525C8.46265 12.7128 8.66356 13.3552 9.02965 13.899C9.39573 14.4428 9.91067 14.8638 10.5098 15.1091C11.1089 15.3544 11.7655 15.413 12.3971 15.2776C13.0286 15.1423 13.607 14.8189 14.0596 14.3482C14.5122 13.8775 14.8188 13.2804 14.9409 12.632C15.0629 11.9835 14.9951 11.3126 14.7458 10.7035C14.4965 10.0944 14.0769 9.57429 13.5397 9.20846C13.0024 8.84262 12.3716 8.6474 11.7263 8.64732ZM3.27667 17.2959C2.6288 17.2957 1.99541 17.492 1.45661 17.8602C0.917806 18.2284 0.497793 18.7518 0.249691 19.3643C0.00158907 19.9768 -0.0634561 20.6508 0.0627828 21.3011C0.189022 21.9514 0.500874 22.5488 0.958896 23.0178C1.41692 23.4867 2.00054 23.8061 2.63594 23.9355C3.27134 24.0649 3.92998 23.9986 4.52855 23.745C5.12713 23.4913 5.63875 23.0617 5.99871 22.5104C6.35868 21.9591 6.55081 21.311 6.55081 20.648V17.2959H3.27667Z" fill="#F8F7F9"/>
<g clip-path="url(#clip0_2_35)">
<path fill-rule="evenodd" clip-rule="evenodd" d="M78 1.545C71.945 1.545 67.043 6.422 67.043 12.428C67.043 16.838 69.686 20.633 73.49 22.34C73.888 22.519 74.277 22.448 74.581 22.22C74.7491 22.0891 74.8846 21.921 74.9769 21.7289C75.0692 21.5369 75.1158 21.3261 75.113 21.113V20.543L73.756 20.359C73.746 20.3576 73.7359 20.356 73.726 20.354C72.978 20.208 72.473 19.945 72.103 19.566C71.792 19.247 71.602 18.865 71.441 18.541L71.385 18.428C71.2362 18.1176 71.0737 17.814 70.898 17.518C70.763 17.304 70.658 17.194 70.554 17.125C70.29 16.95 70.036 16.653 70.036 16.282C70.0351 16.1752 70.058 16.0696 70.1029 15.9727C70.1479 15.8759 70.2138 15.7902 70.296 15.722C70.4511 15.5992 70.6443 15.5348 70.842 15.54C71.064 15.54 71.273 15.608 71.447 15.686C71.625 15.766 71.802 15.872 71.967 15.982C72.369 16.25 72.765 16.567 73.1 16.958C73.449 17.364 73.696 17.622 74.068 17.675C74.374 17.719 74.686 17.72 74.929 17.709C74.9628 17.5166 75.0185 17.3287 75.095 17.149C74.7982 17.0797 74.5054 16.9943 74.218 16.893C73.564 16.661 72.835 16.3 72.345 15.753C71.807 15.151 71.474 14.614 71.288 13.986C71.107 13.374 71.077 12.711 71.077 11.895C71.077 10.645 71.618 9.592 72.024 9.033C71.868 8.5436 71.7559 8.04128 71.689 7.532C71.6447 7.21083 71.645 6.88508 71.69 6.564C71.74 6.271 71.865 5.911 72.194 5.694C72.511 5.483 72.883 5.492 73.173 5.546C73.474 5.603 73.787 5.728 74.075 5.871C74.544 6.103 75.01 6.413 75.359 6.676C75.961 6.499 77.026 6.271 77.989 6.25H78.011C78.975 6.271 79.992 6.499 80.579 6.675C80.929 6.413 81.394 6.102 81.862 5.871C82.15 5.728 82.462 5.603 82.764 5.546C83.054 5.492 83.426 5.483 83.744 5.693C84.072 5.911 84.198 6.271 84.247 6.564C84.298 6.869 84.286 7.21 84.247 7.532C84.1804 8.04125 84.0686 8.54356 83.913 9.033C84.319 9.593 84.86 10.646 84.86 11.895C84.86 12.711 84.83 13.374 84.65 13.985C84.463 14.615 84.13 15.151 83.592 15.753C83.102 16.3 82.373 16.661 81.719 16.893C81.3718 17.015 81.0171 17.1142 80.657 17.19C80.78 17.562 80.824 17.863 80.824 18.036V21.126C80.824 21.596 81.043 21.997 81.354 22.231C81.656 22.46 82.044 22.531 82.442 22.357C86.282 20.665 88.956 16.86 88.956 12.427C88.956 6.422 84.056 1.545 78 1.545ZM75.476 18.71H75.472L75.464 18.712L75.435 18.716C75.2865 18.7335 75.1374 18.7458 74.988 18.753C74.6321 18.7715 74.2752 18.7572 73.922 18.71C73.131 18.598 72.65 18.038 72.339 17.674L72.309 17.64C72.2073 17.522 72.0981 17.4108 71.982 17.307C72.085 17.497 72.192 17.709 72.307 17.937L72.317 17.957L72.368 18.061C72.543 18.409 72.658 18.641 72.849 18.835C73.035 19.025 73.325 19.209 73.911 19.325L75.705 19.568C75.8303 19.585 75.9452 19.6468 76.0283 19.7421C76.1114 19.8374 76.1572 19.9596 76.157 20.086V21.113C76.157 21.913 75.782 22.626 75.207 23.058C74.9051 23.2887 74.546 23.4326 74.1683 23.4742C73.7907 23.5157 73.4089 23.4535 73.064 23.294C68.902 21.427 66 17.27 66 12.428C66 5.836 71.377 0.5 78 0.5C84.623 0.5 90 5.836 90 12.428C90 17.295 87.061 21.463 82.863 23.314C82.5179 23.4704 82.1367 23.5301 81.7603 23.4866C81.3839 23.4431 81.0264 23.298 80.726 23.067C80.429 22.8384 80.1891 22.544 80.0249 22.2071C79.8608 21.8702 79.777 21.4998 79.78 21.125V18.035C79.78 17.965 79.731 17.561 79.458 17.018C79.4203 16.9427 79.4013 16.8594 79.4027 16.7753C79.404 16.6911 79.4256 16.6084 79.4656 16.5344C79.5056 16.4603 79.5629 16.397 79.6326 16.3497C79.7023 16.3025 79.7824 16.2727 79.866 16.263C80.3787 16.1987 80.8829 16.0794 81.37 15.907C81.964 15.697 82.497 15.409 82.814 15.055C83.285 14.529 83.52 14.125 83.649 13.688C83.783 13.235 83.817 12.708 83.817 11.895C83.817 10.754 83.217 9.795 82.941 9.486C82.8783 9.41617 82.8356 9.33077 82.8173 9.23875C82.799 9.14673 82.8058 9.05149 82.837 8.963C83.0148 8.45917 83.1404 7.93845 83.212 7.409C83.244 7.134 83.246 6.904 83.218 6.738C83.2117 6.67731 83.1934 6.61848 83.164 6.565C83.0952 6.55309 83.0246 6.55616 82.957 6.574C82.787 6.606 82.57 6.686 82.324 6.808C81.834 7.05 81.324 7.408 81.008 7.664C80.9383 7.72054 80.8552 7.75808 80.7667 7.77297C80.6782 7.78787 80.5874 7.77961 80.503 7.749C79.6933 7.48415 78.8511 7.33172 78 7.296C76.993 7.32 75.831 7.606 75.434 7.749C75.3496 7.77961 75.2588 7.78787 75.1703 7.77297C75.0818 7.75808 74.9987 7.72054 74.929 7.664C74.5203 7.335 74.0794 7.0482 73.613 6.808C73.4127 6.70282 73.1996 6.62416 72.979 6.574C72.9118 6.5563 72.8415 6.55323 72.773 6.565C72.7436 6.61847 72.7252 6.6773 72.719 6.738C72.691 6.904 72.693 7.134 72.725 7.409C72.7971 7.93836 72.9227 8.45903 73.1 8.963C73.163 9.143 73.124 9.343 72.996 9.486C72.72 9.795 72.12 10.754 72.12 11.895C72.12 12.707 72.154 13.235 72.288 13.688C72.418 14.125 72.652 14.528 73.122 15.055C73.44 15.409 73.972 15.697 74.567 15.907C75.0538 16.0793 75.5577 16.1986 76.07 16.263C76.1754 16.2743 76.2749 16.3174 76.3552 16.3867C76.4354 16.4559 76.4928 16.5479 76.5195 16.6505C76.5462 16.7531 76.541 16.8614 76.5047 16.961C76.4683 17.0606 76.4025 17.1467 76.316 17.208C76.151 17.326 76.042 17.538 75.981 17.783C75.9495 17.9091 75.9307 18.0381 75.925 18.168V18.187C75.9263 18.3138 75.8814 18.4367 75.7989 18.5329C75.7163 18.6291 75.6015 18.6921 75.476 18.71Z" fill="#F8F7F9"/>
</g>
<path fill-rule="evenodd" clip-rule="evenodd" d="M160.6 19.5988H157.189V14.2606C157.189 12.9883 157.167 11.3507 155.417 11.3507C153.641 11.3507 153.37 12.7376 153.37 14.17V19.5988H149.963V8.62253H153.233V10.1235H153.28C153.735 9.26007 154.848 8.35021 156.507 8.35021C159.962 8.35021 160.6 10.6226 160.6 13.5789V19.5988ZM146.117 7.12296C145.857 7.1232 145.599 7.0722 145.359 6.97287C145.119 6.87354 144.901 6.72784 144.717 6.54409C144.533 6.36034 144.387 6.14215 144.288 5.902C144.188 5.66185 144.137 5.40446 144.137 5.14454C144.137 4.61995 144.346 4.11685 144.717 3.74591C145.088 3.37497 145.591 3.16658 146.115 3.16658C146.64 3.16658 147.143 3.37497 147.514 3.74591C147.885 4.11685 148.093 4.61995 148.093 5.14454C148.093 5.66897 147.885 6.17198 147.515 6.54298C147.144 6.91398 146.641 7.12259 146.117 7.12296ZM144.408 19.5988H147.823V8.62253H144.409L144.408 19.5988ZM162.298 0H142.697C141.76 0 141 0.742425 141 1.65873V21.3404C141 22.2567 141.76 23 142.697 23H162.298C163.237 23 164 22.2567 164 21.3404V1.65873C164 0.742425 163.236 0 162.298 0Z" fill="#F8F7F9"/>
<defs>
<clipPath id="clip0_2_35">
<rect width="24" height="24" fill="white" transform="translate(66)"/>
</clipPath>
</defs>
</svg>
