<svg width="82" height="54" viewBox="0 0 82 54" fill="none" xmlns="http://www.w3.org/2000/svg">
<g clip-path="url(#clip0_419_48)">
<path fill-rule="evenodd" clip-rule="evenodd" d="M12 16.545C5.945 16.545 1.043 21.422 1.043 27.428C1.043 31.838 3.686 35.633 7.49 37.34C7.888 37.519 8.277 37.448 8.581 37.22C8.74912 37.0891 8.88464 36.921 8.97694 36.7289C9.06924 36.5369 9.11581 36.3261 9.113 36.113V35.543L7.756 35.359C7.74595 35.3576 7.73595 35.356 7.726 35.354C6.978 35.208 6.473 34.945 6.103 34.566C5.792 34.247 5.602 33.865 5.441 33.541L5.385 33.428C5.2362 33.1176 5.0737 32.814 4.898 32.518C4.763 32.304 4.658 32.194 4.554 32.125C4.29 31.95 4.036 31.653 4.036 31.282C4.0351 31.1752 4.05796 31.0696 4.10293 30.9727C4.1479 30.8759 4.21385 30.7902 4.296 30.722C4.45106 30.5992 4.6443 30.5348 4.842 30.54C5.064 30.54 5.273 30.608 5.447 30.686C5.625 30.766 5.802 30.872 5.967 30.982C6.369 31.25 6.765 31.567 7.1 31.958C7.449 32.364 7.696 32.622 8.068 32.675C8.374 32.719 8.686 32.72 8.929 32.709C8.96277 32.5166 9.01847 32.3287 9.095 32.149C8.79821 32.0797 8.50544 31.9943 8.218 31.893C7.564 31.661 6.835 31.3 6.345 30.753C5.807 30.151 5.474 29.614 5.288 28.986C5.107 28.374 5.077 27.711 5.077 26.895C5.077 25.645 5.618 24.592 6.024 24.033C5.86801 23.5436 5.7559 23.0413 5.689 22.532C5.64469 22.2108 5.64503 21.8851 5.69 21.564C5.74 21.271 5.865 20.911 6.194 20.694C6.511 20.483 6.883 20.492 7.173 20.546C7.474 20.603 7.787 20.728 8.075 20.871C8.544 21.103 9.01 21.413 9.359 21.676C9.961 21.499 11.026 21.271 11.989 21.25H12.011C12.975 21.271 13.992 21.499 14.579 21.675C14.929 21.413 15.394 21.102 15.862 20.871C16.15 20.728 16.462 20.603 16.764 20.546C17.054 20.492 17.426 20.483 17.744 20.693C18.072 20.911 18.198 21.271 18.247 21.564C18.298 21.869 18.286 22.21 18.247 22.532C18.1804 23.0412 18.0686 23.5436 17.913 24.033C18.319 24.593 18.86 25.646 18.86 26.895C18.86 27.711 18.83 28.374 18.65 28.985C18.463 29.615 18.13 30.151 17.592 30.753C17.102 31.3 16.373 31.661 15.719 31.893C15.3718 32.015 15.0171 32.1142 14.657 32.19C14.78 32.562 14.824 32.863 14.824 33.036V36.126C14.824 36.596 15.043 36.997 15.354 37.231C15.656 37.46 16.044 37.531 16.442 37.357C20.282 35.665 22.956 31.86 22.956 27.427C22.956 21.422 18.056 16.545 12 16.545ZM9.476 33.71H9.472L9.464 33.712L9.435 33.716C9.28647 33.7335 9.13738 33.7458 8.988 33.753C8.6321 33.7715 8.27525 33.7572 7.922 33.71C7.131 33.598 6.65 33.038 6.339 32.674L6.309 32.64C6.20732 32.522 6.09809 32.4108 5.982 32.307C6.085 32.497 6.192 32.709 6.307 32.937L6.317 32.957L6.368 33.061C6.543 33.409 6.658 33.641 6.849 33.835C7.035 34.025 7.325 34.209 7.911 34.325L9.705 34.568C9.8303 34.585 9.94518 34.6468 10.0283 34.7421C10.1114 34.8374 10.1572 34.9596 10.157 35.086V36.113C10.157 36.913 9.782 37.626 9.207 38.058C8.90511 38.2887 8.54598 38.4326 8.16833 38.4742C7.79069 38.5157 7.40885 38.4535 7.064 38.294C2.902 36.427 0 32.27 0 27.428C0 20.836 5.377 15.5 12 15.5C18.623 15.5 24 20.836 24 27.428C24 32.295 21.061 36.463 16.863 38.314C16.5179 38.4704 16.1367 38.5301 15.7603 38.4866C15.3839 38.4431 15.0264 38.298 14.726 38.067C14.429 37.8384 14.1891 37.544 14.0249 37.2071C13.8608 36.8702 13.777 36.4998 13.78 36.125V33.035C13.78 32.965 13.731 32.561 13.458 32.018C13.4203 31.9427 13.4013 31.8594 13.4027 31.7753C13.404 31.6911 13.4256 31.6084 13.4656 31.5344C13.5056 31.4603 13.5629 31.397 13.6326 31.3497C13.7023 31.3025 13.7824 31.2727 13.866 31.263C14.3787 31.1987 14.8829 31.0794 15.37 30.907C15.964 30.697 16.497 30.409 16.814 30.055C17.285 29.529 17.52 29.125 17.649 28.688C17.783 28.235 17.817 27.708 17.817 26.895C17.817 25.754 17.217 24.795 16.941 24.486C16.8783 24.4162 16.8356 24.3308 16.8173 24.2387C16.799 24.1467 16.8058 24.0515 16.837 23.963C17.0148 23.4592 17.1404 22.9384 17.212 22.409C17.244 22.134 17.246 21.904 17.218 21.738C17.2117 21.6773 17.1934 21.6185 17.164 21.565C17.0952 21.5531 17.0246 21.5562 16.957 21.574C16.787 21.606 16.57 21.686 16.324 21.808C15.834 22.05 15.324 22.408 15.008 22.664C14.9383 22.7205 14.8552 22.7581 14.7667 22.773C14.6782 22.7879 14.5874 22.7796 14.503 22.749C13.6933 22.4841 12.8511 22.3317 12 22.296C10.993 22.32 9.831 22.606 9.434 22.749C9.34964 22.7796 9.2588 22.7879 9.17031 22.773C9.08182 22.7581 8.99869 22.7205 8.929 22.664C8.52034 22.335 8.07942 22.0482 7.613 21.808C7.41271 21.7028 7.19959 21.6242 6.979 21.574C6.91177 21.5563 6.84152 21.5532 6.773 21.565C6.74361 21.6185 6.72524 21.6773 6.719 21.738C6.691 21.904 6.693 22.134 6.725 22.409C6.79707 22.9384 6.92271 23.459 7.1 23.963C7.163 24.143 7.124 24.343 6.996 24.486C6.72 24.795 6.12 25.754 6.12 26.895C6.12 27.707 6.154 28.235 6.288 28.688C6.418 29.125 6.652 29.528 7.122 30.055C7.44 30.409 7.972 30.697 8.567 30.907C9.05377 31.0793 9.55768 31.1986 10.07 31.263C10.1754 31.2743 10.2749 31.3174 10.3552 31.3867C10.4354 31.4559 10.4928 31.5479 10.5195 31.6505C10.5462 31.7531 10.541 31.8614 10.5047 31.961C10.4683 32.0606 10.4025 32.1467 10.316 32.208C10.151 32.326 10.042 32.538 9.981 32.783C9.94951 32.9091 9.93075 33.0381 9.925 33.168V33.187C9.92628 33.3138 9.88144 33.4367 9.79885 33.5329C9.71626 33.6291 9.60152 33.6921 9.476 33.71Z" fill="#F8F7F9"/>
</g>
<path fill-rule="evenodd" clip-rule="evenodd" d="M66.6001 34.5988H63.1891V29.2606C63.1891 27.9883 63.167 26.3507 61.4167 26.3507C59.6411 26.3507 59.3701 27.7376 59.3701 29.17V34.5988H55.9628V23.6225H59.2326V25.1235H59.2799C59.7354 24.2601 60.8481 23.3502 62.5074 23.3502C65.962 23.3502 66.6001 25.6226 66.6001 28.5789V34.5988ZM52.1167 22.123C51.8568 22.1232 51.5993 22.0722 51.3591 21.9729C51.1189 21.8735 50.9006 21.7278 50.7168 21.5441C50.533 21.3603 50.3872 21.1421 50.2877 20.902C50.1883 20.6619 50.1371 20.4045 50.1373 20.1445C50.1373 19.6199 50.3457 19.1168 50.7166 18.7459C51.0876 18.375 51.5907 18.1666 52.1153 18.1666C52.6399 18.1666 53.143 18.375 53.514 18.7459C53.8849 19.1168 54.0933 19.6199 54.0933 20.1445C54.0935 20.669 53.8853 21.172 53.5146 21.543C53.144 21.914 52.6411 22.1226 52.1167 22.123ZM50.4082 34.5988H53.8229V23.6225H50.4087L50.4082 34.5988ZM68.2984 15H48.6965C47.7604 15 47 15.7424 47 16.6587V36.3404C47 37.2567 47.7604 38 48.6965 38H68.2984C69.2368 38 70 37.2567 70 36.3404V16.6587C70.0005 15.7424 69.2364 15 68.2984 15Z" fill="#F8F7F9"/>
<defs>
<clipPath id="clip0_419_48">
<rect width="24" height="24" fill="white" transform="translate(0 15)"/>
</clipPath>
</defs>
</svg>
