<svg width="15" height="24" viewBox="0 0 15 24" fill="none" xmlns="http://www.w3.org/2000/svg">
<path fill-rule="evenodd" clip-rule="evenodd" d="M3.27667 8.64861C2.84671 8.64861 2.42095 8.73528 2.02371 8.90367C1.62648 9.07206 1.26554 9.31888 0.961509 9.63002C0.657477 9.94117 0.416306 10.3106 0.251765 10.7171C0.0872246 11.1236 0.00253679 11.5593 0.00253679 11.9994C0.00253679 12.4394 0.0872246 12.8751 0.251765 13.2816C0.416306 13.6882 0.657477 14.0575 0.961509 14.3687C1.26554 14.6798 1.62648 14.9266 2.02371 15.095C2.42095 15.2634 2.84671 15.3501 3.27667 15.3501H6.55081V12.0668C6.5503 12.0218 6.5503 11.9769 6.55081 11.9319V8.64861H3.27667ZM6.55081 6.70277H3.27667C2.40815 6.70277 1.5752 6.34968 0.96106 5.72117C0.346922 5.09267 0.00190275 4.24023 0.00190275 3.35139C0.00190275 2.46254 0.346922 1.61011 0.96106 0.981598C1.5752 0.353091 2.40815 0 3.27667 0H6.55081V6.70277ZM8.45216 0V6.70277H11.7263C12.5837 6.68551 13.4002 6.32483 14.0006 5.6982C14.601 5.07158 14.9373 4.22898 14.9373 3.35139C14.9373 2.47379 14.601 1.6312 14.0006 1.00457C13.4002 0.377941 12.5837 0.0172634 11.7263 0H8.45216ZM11.7263 8.64732C10.8669 8.64721 10.0419 8.99292 9.42932 9.60985C8.81677 10.2268 8.4658 11.0654 8.45216 11.9449V12.0525C8.46265 12.7128 8.66356 13.3552 9.02965 13.899C9.39573 14.4428 9.91067 14.8638 10.5098 15.1091C11.1089 15.3544 11.7655 15.413 12.3971 15.2776C13.0286 15.1423 13.607 14.8189 14.0596 14.3482C14.5122 13.8775 14.8188 13.2804 14.9409 12.632C15.0629 11.9835 14.9951 11.3126 14.7458 10.7035C14.4965 10.0944 14.0769 9.57429 13.5397 9.20846C13.0024 8.84262 12.3716 8.6474 11.7263 8.64732ZM3.27667 17.2959C2.6288 17.2957 1.99541 17.492 1.45661 17.8602C0.917806 18.2284 0.497793 18.7518 0.249691 19.3643C0.00158907 19.9768 -0.0634561 20.6508 0.0627828 21.3011C0.189022 21.9514 0.500874 22.5488 0.958896 23.0178C1.41692 23.4867 2.00054 23.8061 2.63594 23.9355C3.27134 24.0649 3.92998 23.9986 4.52855 23.745C5.12713 23.4913 5.63875 23.0617 5.99871 22.5104C6.35868 21.9591 6.55081 21.311 6.55081 20.648V17.2959H3.27667Z" fill="#F8F7F9"/>
</svg>
