<svg width="23" height="23" viewBox="0 0 23 23" fill="none" xmlns="http://www.w3.org/2000/svg">
<path fill-rule="evenodd" clip-rule="evenodd" d="M19.6001 19.5988H16.1891V14.2606C16.1891 12.9883 16.167 11.3507 14.4167 11.3507C12.6411 11.3507 12.3701 12.7376 12.3701 14.17V19.5988H8.96282V8.62253H12.2326V10.1235H12.2799C12.7354 9.26007 13.8481 8.35021 15.5074 8.35021C18.962 8.35021 19.6001 10.6226 19.6001 13.5789V19.5988ZM5.11668 7.12296C4.85675 7.1232 4.59932 7.0722 4.35912 6.97287C4.11891 6.87354 3.90065 6.72784 3.71681 6.54409C3.53296 6.36034 3.38715 6.14215 3.28771 5.902C3.18827 5.66185 3.13714 5.40446 3.13726 5.14454C3.13726 4.61995 3.34566 4.11685 3.71662 3.74591C4.08757 3.37497 4.59069 3.16658 5.1153 3.16658C5.63991 3.16658 6.14303 3.37497 6.51399 3.74591C6.88494 4.11685 7.09334 4.61995 7.09334 5.14454C7.09346 5.66897 6.88531 6.17198 6.51464 6.54298C6.14397 6.91398 5.64113 7.12259 5.11668 7.12296ZM3.40821 19.5988H6.82286V8.62253H3.40867L3.40821 19.5988ZM21.2984 0H1.69651C0.760395 0 0 0.742425 0 1.65873V21.3404C0 22.2567 0.760395 23 1.69651 23H21.2984C22.2368 23 23 22.2567 23 21.3404V1.65873C23.0005 0.742425 22.2364 0 21.2984 0Z" fill="#F8F7F9"/>
</svg>
